<?xml version="1.0" standalone="no"?>
<svg xmlns:xlink="http://www.w3.org/1999/xlink" id="wave" style="transform:rotate(0deg); transition: 0.3s" viewBox="0 0 1440 230" version="1.1" xmlns="http://www.w3.org/2000/svg"><defs><linearGradient id="sw-gradient-0" x1="0" x2="0" y1="1" y2="0"><stop stop-color="rgba(39.687, 55.162, 61.843, 0.99)" offset="0%"/><stop stop-color="rgba(33.19, 70.697, 86.888, 1)" offset="100%"/></linearGradient></defs><path style="transform:translate(0, 0px); opacity:1" fill="url(#sw-gradient-0)" d="M0,0L30,26.8C60,54,120,107,180,126.5C240,146,300,130,360,103.5C420,77,480,38,540,26.8C600,15,660,31,720,65.2C780,100,840,153,900,157.2C960,161,1020,115,1080,84.3C1140,54,1200,38,1260,26.8C1320,15,1380,8,1440,7.7C1500,8,1560,15,1620,49.8C1680,84,1740,146,1800,164.8C1860,184,1920,161,1980,141.8C2040,123,2100,107,2160,88.2C2220,69,2280,46,2340,34.5C2400,23,2460,23,2520,38.3C2580,54,2640,84,2700,99.7C2760,115,2820,115,2880,118.8C2940,123,3000,130,3060,126.5C3120,123,3180,107,3240,118.8C3300,130,3360,169,3420,184C3480,199,3540,192,3600,191.7C3660,192,3720,199,3780,172.5C3840,146,3900,84,3960,61.3C4020,38,4080,54,4140,69C4200,84,4260,100,4290,107.3L4320,115L4320,230L4290,230C4260,230,4200,230,4140,230C4080,230,4020,230,3960,230C3900,230,3840,230,3780,230C3720,230,3660,230,3600,230C3540,230,3480,230,3420,230C3360,230,3300,230,3240,230C3180,230,3120,230,3060,230C3000,230,2940,230,2880,230C2820,230,2760,230,2700,230C2640,230,2580,230,2520,230C2460,230,2400,230,2340,230C2280,230,2220,230,2160,230C2100,230,2040,230,1980,230C1920,230,1860,230,1800,230C1740,230,1680,230,1620,230C1560,230,1500,230,1440,230C1380,230,1320,230,1260,230C1200,230,1140,230,1080,230C1020,230,960,230,900,230C840,230,780,230,720,230C660,230,600,230,540,230C480,230,420,230,360,230C300,230,240,230,180,230C120,230,60,230,30,230L0,230Z"/></svg>